<svg xmlns="http://www.w3.org/2000/svg" viewBox="0 0 479.24 71.36"><defs><style>.cls-1{fill:#fd0;}.cls-2{fill:#76ffd5;}.cls-3{fill:#0d0c22;}</style></defs><g id="Layer_2" data-name="Layer 2"><g id="Layer_1-2" data-name="Layer 1"><rect class="cls-1" x="59.13" width="420.11" height="71.36" rx="12"/><rect class="cls-2" width="86.16" height="71.36" rx="12"/><path class="cls-1" d="M44.86,33.86a15.07,15.07,0,0,1-6.21,1.57A11.89,11.89,0,0,1,35.51,35l1.75,18a3.06,3.06,0,0,0,1,2,3,3,0,0,0,2,.79s2.48.13,3.31.13,3.57-.13,3.57-.13a3,3,0,0,0,3-2.76L52,33.11a7.92,7.92,0,0,0-2.64-.48A11,11,0,0,0,44.86,33.86Z"/><path class="cls-3" d="M60.11,24.52l-.26-1.33a3.34,3.34,0,0,0-2-2.75A3.07,3.07,0,0,1,56.71,20a2,2,0,0,1-.46-1.14c-.13-.76-.25-1.51-.39-2.27a7,7,0,0,0-.5-2,3.44,3.44,0,0,0-2-1.57,9.05,9.05,0,0,0-1.25-.39A30.24,30.24,0,0,0,46,11.79a50.65,50.65,0,0,0-7.39.12,22.31,22.31,0,0,0-5.5,1,4.65,4.65,0,0,0-1.77,1A1.92,1.92,0,0,0,31,16.2a3,3,0,0,0,1.38,1.16,11.07,11.07,0,0,0,2.24.73,36.22,36.22,0,0,0,6.57.74,49.31,49.31,0,0,0,7.29-.24c.6-.06,1.19-.14,1.79-.23a1.37,1.37,0,0,0,.95-1.67,1.41,1.41,0,0,0-1.67-1l-.33,0-.08,0-.77.09L46.76,16c-1.19.08-2.38.12-3.56.12s-2.34,0-3.5-.11l-1.59-.13-.72-.09-.23,0h0l-.24,0c-.48-.07-1-.15-1.45-.25a.23.23,0,0,1-.12-.08.24.24,0,0,1,0-.14.21.21,0,0,1,0-.13.23.23,0,0,1,.12-.08h0c.42-.09.84-.16,1.26-.23l.42-.06h0c.26,0,.53-.07.79-.1a52.08,52.08,0,0,1,6.84-.24c1.11,0,2.22.1,3.32.21l.71.08.27,0,.18,0c.54.08,1.07.18,1.6.29.78.17,1.79.23,2.14,1.08a5.43,5.43,0,0,1,.22.86l.08.37v0c.18.86.37,1.72.55,2.58a.41.41,0,0,1,0,.19.49.49,0,0,1-.08.18.57.57,0,0,1-.14.13.67.67,0,0,1-.18.07H53.3l-.11,0-1.06.13-2.1.2c-1.39.12-2.79.19-4.18.23-.71,0-1.43,0-2.14,0a74.91,74.91,0,0,1-8.47-.5l-.91-.11-.25,0-.59-.08-1.94-.32a3.35,3.35,0,0,0-2.24.32A3.31,3.31,0,0,0,28,21.86a7.67,7.67,0,0,0-.53,2A6.87,6.87,0,0,0,27.16,26a3.37,3.37,0,0,0,2.74,3c1.42.25,2.85.46,4.29.64a79.66,79.66,0,0,0,17,.25l1.38-.14a1,1,0,0,1,.79.27,1.05,1.05,0,0,1,.23.36.9.9,0,0,1,0,.43l-.14,1.39-.87,8.44q-.45,4.43-.91,8.86c-.08.83-.17,1.66-.26,2.49s-.09,1.66-.24,2.47a2.89,2.89,0,0,1-2.37,2.34,16.49,16.49,0,0,1-3.5.41c-1.31,0-2.62,0-3.93,0S38.29,57,37.21,56,36.14,53.63,36,52.4c-.18-1.64-.35-3.28-.52-4.91l-.94-9.1-.62-5.89,0-.29a1.36,1.36,0,1,0-2.71,0l.46,4.36.94,9c.27,2.57.53,5.13.8,7.7l.15,1.47c.3,2.69,2.35,4.13,4.89,4.54a30.79,30.79,0,0,0,4.51.31,28.61,28.61,0,0,0,5.78-.24,6,6,0,0,0,5.22-5.31c.09-.84.17-1.68.26-2.52.28-2.78.57-5.57.85-8.35L56,34.11l.43-4.17a1,1,0,0,1,.24-.56,1,1,0,0,1,.53-.29,3.83,3.83,0,0,0,2.15-1A3.66,3.66,0,0,0,60.11,24.52Zm-30.26.9s0,.1,0,.15A.4.4,0,0,1,29.85,25.42Zm.08.61s0,0,.05,0l-.05,0Zm.08.1Zm.15.12h0s0,0,0,0l0,0Zm27-.18a2.15,2.15,0,0,1-1.16.46,81,81,0,0,1-14.59.92,100.52,100.52,0,0,1-10.4-1,1.54,1.54,0,0,1-.94-.36c-.44-.47-.23-1.42-.11-2s.3-1.22.92-1.29a12.28,12.28,0,0,1,3.05.44c1.15.18,2.31.32,3.47.42a67.16,67.16,0,0,0,14.93-.28c.89-.12,1.79-.26,2.68-.42s1.68-.41,2.16.41a3.46,3.46,0,0,1,.32,1.95,1.06,1.06,0,0,1-.33.73Z"/><path d="M117,22.74a8.07,8.07,0,0,1,5.81,1.94,7.2,7.2,0,0,1,2,5.47,7.11,7.11,0,0,1-.85,3.45,6.2,6.2,0,0,1-2.49,2.51,8.66,8.66,0,0,1-4.06,1l0-1.19a11.48,11.48,0,0,1,3.07.43,8.81,8.81,0,0,1,2.89,1.36,7.27,7.27,0,0,1,2.18,2.47,7.78,7.78,0,0,1,.85,3.79,9.27,9.27,0,0,1-.81,4.08,7,7,0,0,1-2.15,2.64,9,9,0,0,1-3,1.41,13.41,13.41,0,0,1-3.34.42H105.89a1.74,1.74,0,0,1-1.74-1.74V24.49a1.7,1.7,0,0,1,.51-1.24,1.68,1.68,0,0,1,1.23-.51Zm-.47,3.37h-9.15l.51-.73V35.94l-.47-.55h9.16a4.62,4.62,0,0,0,3.21-1.22,4.56,4.56,0,0,0,1.34-3.55,4.41,4.41,0,0,0-1.21-3.34A4.69,4.69,0,0,0,116.49,26.11Zm.3,12.68h-9.24l.3-.3V49.6l-.34-.38H117A6.27,6.27,0,0,0,121,47.94,4.76,4.76,0,0,0,122.62,44a5.15,5.15,0,0,0-.85-3.2,4.51,4.51,0,0,0-2.19-1.55A8.68,8.68,0,0,0,116.79,38.79Z"/><path d="M153.06,22.7a1.62,1.62,0,0,1,1.24.51,1.76,1.76,0,0,1,.46,1.24v16.9a11.35,11.35,0,0,1-5.57,10,11.45,11.45,0,0,1-15.73-4.11A11.43,11.43,0,0,1,132,41.35V24.45a1.68,1.68,0,0,1,.51-1.24,1.79,1.79,0,0,1,1.32-.51,1.71,1.71,0,0,1,1.21.51,1.66,1.66,0,0,1,.53,1.24v16.9a8.14,8.14,0,0,0,1.07,4.17,7.8,7.8,0,0,0,6.76,3.91,7.95,7.95,0,0,0,8.09-8.08V24.45a1.8,1.8,0,0,1,.45-1.24A1.49,1.49,0,0,1,153.06,22.7Z"/><path d="M179.92,22.62a1.64,1.64,0,0,1,1.22.51,1.68,1.68,0,0,1,.49,1.19,2.36,2.36,0,0,1-.07.55,1.64,1.64,0,0,1-.23.51l-9.88,13.79.55-2.08V50.8a1.7,1.7,0,0,1-.49,1.23,1.55,1.55,0,0,1-1.17.51,1.64,1.64,0,0,1-1.25-.51,1.7,1.7,0,0,1-.49-1.23V37.39l.25,1.15-9.53-12.95a2.61,2.61,0,0,1-.38-.65,1.61,1.61,0,0,1-.13-.62,1.49,1.49,0,0,1,.61-1.24,2,2,0,0,1,1.22-.46,1.66,1.66,0,0,1,1.4.76l8.81,12.09-.8-.13,8.42-11.92A1.75,1.75,0,0,1,179.92,22.62Z"/><path d="M218.92,22.7a1.58,1.58,0,0,1,1.23.51,1.77,1.77,0,0,1,.47,1.24v16.9a11.53,11.53,0,0,1-1.51,5.87,11.45,11.45,0,0,1-19.8,0,11.43,11.43,0,0,1-1.51-5.87V24.45a1.68,1.68,0,0,1,.51-1.24,1.79,1.79,0,0,1,1.32-.51,1.68,1.68,0,0,1,1.21.51,1.64,1.64,0,0,1,.54,1.24v16.9a8.13,8.13,0,0,0,1.06,4.17,7.75,7.75,0,0,0,2.87,2.87,7.65,7.65,0,0,0,3.9,1,8,8,0,0,0,8.09-8.08V24.45a1.8,1.8,0,0,1,.45-1.24A1.46,1.46,0,0,1,218.92,22.7Z"/><path d="M236.33,53a15,15,0,0,1-5.54-.94,14.81,14.81,0,0,1-4.6-3,2,2,0,0,1-.48-.64,1.73,1.73,0,0,1-.2-.81,1.78,1.78,0,0,1,.49-1.21,1.6,1.6,0,0,1,1.22-.53,1.44,1.44,0,0,1,1.06.47,12.25,12.25,0,0,0,3.6,2.47,10.83,10.83,0,0,0,4.36.85,8.9,8.9,0,0,0,3.36-.6A5.93,5.93,0,0,0,242,47.39a3.75,3.75,0,0,0,.89-2.47,4.15,4.15,0,0,0-1-2.81,7,7,0,0,0-2.63-1.83,26.25,26.25,0,0,0-3.9-1.28,25,25,0,0,1-3.6-1.12,11,11,0,0,1-2.85-1.66,6.84,6.84,0,0,1-1.87-2.43,8,8,0,0,1-.66-3.38,7.18,7.18,0,0,1,1.27-4.24,8.5,8.5,0,0,1,3.56-2.83,12.65,12.65,0,0,1,5.21-1,14.14,14.14,0,0,1,4.92.85,9.61,9.61,0,0,1,3.73,2.34,2.32,2.32,0,0,1,.85,1.62,1.61,1.61,0,0,1-.53,1.13,1.7,1.7,0,0,1-1.22.53,1.36,1.36,0,0,1-.85-.3A7.31,7.31,0,0,0,241.5,27a12,12,0,0,0-2.43-1,9.38,9.38,0,0,0-2.62-.38,9.58,9.58,0,0,0-3.44.57,5.43,5.43,0,0,0-2.32,1.6,3.75,3.75,0,0,0-.83,2.47,3.85,3.85,0,0,0,.93,2.66,7,7,0,0,0,2.51,1.7,27.05,27.05,0,0,0,3.5,1.17A35.08,35.08,0,0,1,240.65,37a11.85,11.85,0,0,1,3,1.64,6.57,6.57,0,0,1,2,2.49,8.81,8.81,0,0,1,.7,3.73A7,7,0,0,1,245.05,49a9.08,9.08,0,0,1-3.59,2.89A12,12,0,0,1,236.33,53Z"/><path d="M274.09,27.17l-10,24.35a1.66,1.66,0,0,1-.59.83,1.52,1.52,0,0,1-.9.32,1.47,1.47,0,0,1-1.19-.45,1.73,1.73,0,0,1-.43-1,2.53,2.53,0,0,1,.09-.64l11-26.78a2.07,2.07,0,0,1,.71-.89,1.52,1.52,0,0,1,1-.25,1.75,1.75,0,0,1,1,.29,1.52,1.52,0,0,1,.61.85l11,26.53a2,2,0,0,1,.12.68,1.61,1.61,0,0,1-.5,1.23,1.7,1.7,0,0,1-1.16.47,1.59,1.59,0,0,1-1-.32,1.84,1.84,0,0,1-.64-.87L273.11,27.13Zm-7.88,17.41,1.45-3.32H280.3l.64,3.32Z"/><path d="M324.32,24.7a1.56,1.56,0,0,1,.85,1.15,1.86,1.86,0,0,1-.38,1.45,1.38,1.38,0,0,1-1,.57,2.07,2.07,0,0,1-1.2-.23,12.63,12.63,0,0,0-3-1.34,11.55,11.55,0,0,0-3.4-.49,12,12,0,0,0-4.6.85A10.36,10.36,0,0,0,308,29.11a11.26,11.26,0,0,0-2.38,3.76,12.93,12.93,0,0,0-.85,4.77,13.27,13.27,0,0,0,.89,5,11,11,0,0,0,2.45,3.76,10.34,10.34,0,0,0,3.62,2.37,12.36,12.36,0,0,0,4.49.8,12.12,12.12,0,0,0,3.36-.46,11.78,11.78,0,0,0,3-1.37,2.09,2.09,0,0,1,1.22-.21,1.49,1.49,0,0,1,1,.6,1.68,1.68,0,0,1,.4,1.42,1.6,1.6,0,0,1-.83,1.13,14.44,14.44,0,0,1-2.43,1.15,18.8,18.8,0,0,1-2.83.81,14.52,14.52,0,0,1-2.91.3,15.72,15.72,0,0,1-5.79-1.07,14.81,14.81,0,0,1-4.83-3,13.76,13.76,0,0,1-3.3-4.81,16.28,16.28,0,0,1-1.2-6.41,15.87,15.87,0,0,1,1.15-6.06,14.46,14.46,0,0,1,8-8,15.61,15.61,0,0,1,6-1.13,16.33,16.33,0,0,1,4.3.58A14,14,0,0,1,324.32,24.7Z"/><path d="M357.18,37.64a16.87,16.87,0,0,1-1.06,6.07,14.87,14.87,0,0,1-3,4.87,13.76,13.76,0,0,1-4.56,3.24,14.92,14.92,0,0,1-11.49,0,13.66,13.66,0,0,1-4.56-3.24,14.65,14.65,0,0,1-3-4.87,18.2,18.2,0,0,1,0-12.13,14.7,14.7,0,0,1,3-4.88,13.49,13.49,0,0,1,4.56-3.23,14.92,14.92,0,0,1,11.49,0,13.59,13.59,0,0,1,4.56,3.23,14.91,14.91,0,0,1,3,4.88A16.85,16.85,0,0,1,357.18,37.64Zm-3.7,0a13.57,13.57,0,0,0-1.36-6.15,10.64,10.64,0,0,0-3.77-4.24,10.16,10.16,0,0,0-5.56-1.53,10,10,0,0,0-5.51,1.53,10.64,10.64,0,0,0-3.77,4.22,13.44,13.44,0,0,0-1.36,6.17,13.44,13.44,0,0,0,1.36,6.15A10.5,10.5,0,0,0,337.28,48a10,10,0,0,0,5.51,1.53A10.16,10.16,0,0,0,348.35,48a10.5,10.5,0,0,0,3.77-4.24A13.57,13.57,0,0,0,353.48,37.64Z"/><path d="M364.55,52.54a1.71,1.71,0,0,1-1.79-1.74V24.49a1.7,1.7,0,0,1,.51-1.24,1.68,1.68,0,0,1,1.23-.51h14.94a1.75,1.75,0,0,1,1.24.49,1.62,1.62,0,0,1,.51,1.22,1.5,1.5,0,0,1-.51,1.12,1.7,1.7,0,0,1-1.24.49H366l.25-.34V36.11l-.21-.47h11.45a1.7,1.7,0,0,1,1.23.49,1.62,1.62,0,0,1,.51,1.21,1.49,1.49,0,0,1-.51,1.15,1.72,1.72,0,0,1-1.23.47H366l.3-.34V50.8a1.74,1.74,0,0,1-1.74,1.74Z"/><path d="M388.55,52.54a1.71,1.71,0,0,1-1.78-1.74V24.49a1.7,1.7,0,0,1,.51-1.24,1.68,1.68,0,0,1,1.23-.51h14.94a1.75,1.75,0,0,1,1.24.49,1.62,1.62,0,0,1,.51,1.22,1.5,1.5,0,0,1-.51,1.12,1.7,1.7,0,0,1-1.24.49h-13.4l.25-.34V36.11l-.21-.47h11.45a1.7,1.7,0,0,1,1.23.49,1.62,1.62,0,0,1,.51,1.21,1.49,1.49,0,0,1-.51,1.15,1.72,1.72,0,0,1-1.23.47H390l.3-.34V50.8a1.74,1.74,0,0,1-1.75,1.74Z"/><path d="M412.52,22.74h15.16a1.74,1.74,0,0,1,1.23.49,1.62,1.62,0,0,1,.51,1.22,1.49,1.49,0,0,1-.51,1.17,1.84,1.84,0,0,1-1.23.44H414l.38-.72V36.07l-.42-.47h11.83a1.75,1.75,0,0,1,1.24.47,1.58,1.58,0,0,1,.51,1.23,1.49,1.49,0,0,1-.51,1.17,1.82,1.82,0,0,1-1.24.45H414.05l.3-.43v11l-.25-.3h13.58a1.68,1.68,0,0,1,1.23.51,1.6,1.6,0,0,1,.51,1.15,1.54,1.54,0,0,1-.51,1.19,1.72,1.72,0,0,1-1.23.47H412.52a1.74,1.74,0,0,1-1.74-1.74V24.49a1.7,1.7,0,0,1,.51-1.24A1.68,1.68,0,0,1,412.52,22.74Z"/><path d="M436.79,22.74h15.15a1.76,1.76,0,0,1,1.24.49,1.62,1.62,0,0,1,.51,1.22,1.49,1.49,0,0,1-.51,1.17,1.86,1.86,0,0,1-1.24.44H438.23l.39-.72V36.07l-.43-.47H450a1.72,1.72,0,0,1,1.23.47,1.58,1.58,0,0,1,.51,1.23,1.49,1.49,0,0,1-.51,1.17,1.79,1.79,0,0,1-1.23.45H438.32l.3-.43v11l-.26-.3h13.58a1.7,1.7,0,0,1,1.24.51,1.6,1.6,0,0,1,.51,1.15,1.54,1.54,0,0,1-.51,1.19,1.75,1.75,0,0,1-1.24.47H436.79A1.74,1.74,0,0,1,435,50.8V24.49a1.74,1.74,0,0,1,1.75-1.75Z"/></g></g></svg>